# xmcd CD database file
#
# Track frame offsets:
#	150
#	11810
#	36772
#	56349
#	79911
#	98147
#	113283
#	134689
#	155484
#	172213
#	199963
#	220601
#
# Disc length: 3133 seconds
#
# Revision: 3
# Processed by: cddbd v1.5.1PL2 Copyright (c) Steve Scherf et al.
# Submitted via: CDex 1.51
#
DISCID=a10c3b0c
DTITLE=Pär Björck Trio - Musik: Jimmy Van Heusen
DYEAR=1900
DGENRE=Jazz
TTITLE0=Come dance with me
TTITLE1=But beautiful
TTITLE2=All the way
TTITLE3=It could happen to you
TTITLE4=All this heaven too
TTITLE5=Like someone in love
TTITLE6=Here\s that rainy day
TTITLE7=The second time around
TTITLE8=Darn that dream
TTITLE9=Polka dots and moonbeams
TTITLE10=Imagination
TTITLE11=I thought about you
EXTD=
EXTT0=
EXTT1=
EXTT2=
EXTT3=
EXTT4=
EXTT5=
EXTT6=
EXTT7=
EXTT8=
EXTT9=
EXTT10=
EXTT11=
PLAYORDER=
